<svg width="476.69" height="346" viewBox="0 0 476.69 346" fill="none" xmlns="http://www.w3.org/2000/svg">
<g filter="url(#filter0_d)">
<path d="M481.692 366H5V359.114H481.692V366Z" fill="#83911D"/>
<path d="M481.692 359.114H5V335.671H481.692V359.114Z" fill="#99B02C"/>
<path d="M273.233 115.927H360.448V213.015H273.233V115.927Z" fill="#EFD184"/>
<path d="M370.137 118.468H98.3179L123.301 45.4845H345.154L370.137 118.468Z" fill="#253746"/>
<path d="M291.429 124.126H91.0171L191.698 20L291.429 124.126Z" fill="#DDBB66"/>
<path d="M191.666 30.072L100.739 124.127H281.761L191.666 30.072Z" fill="#F2DCA5"/>
<path d="M358.409 340.348H95.8364V221.303H358.409V340.348Z" fill="#F2DCA5"/>
<path d="M110.917 118.805H273.873V213.054H110.917V118.805Z" fill="#F2DCA5"/>
<path d="M171.123 275.557H148.275V249.442H171.123V275.557Z" fill="#AAE0E5"/>
<path d="M149.139 274.686H170.245V250.318H149.139V274.686ZM171.987 276.433H147.396V248.572H171.987V276.433Z" fill="#F2F2F2"/>
<path d="M171.123 314.524H148.275V275.557H171.123V314.524Z" fill="#AAE0E5"/>
<path d="M149.139 313.655H170.245V276.432H149.139V313.655ZM171.987 315.401H147.396V274.686H171.987V315.401Z" fill="#F2F2F2"/>
<path d="M202.611 275.344H179.752V249.23H202.611V275.344Z" fill="#AAE0E5"/>
<path d="M180.627 274.474H201.735V250.106H180.627V274.474ZM203.476 276.22H178.875V248.359H203.476V276.22Z" fill="#F2F2F2"/>
<path d="M202.611 314.312H179.752V275.344H202.611V314.312Z" fill="#AAE0E5"/>
<path d="M180.627 313.441H201.735V276.22H180.627V313.441ZM203.476 315.187H178.875V274.474H203.476V315.187Z" fill="#F2F2F2"/>
<path d="M233.552 275.558H210.707V249.443H233.552V275.558Z" fill="#AAE0E5"/>
<path d="M211.582 274.683H232.686V250.314H211.582V274.683ZM234.427 276.429H209.831V248.568H234.427V276.429Z" fill="#F2F2F2"/>
<path d="M233.552 314.526H210.707V275.558H233.552V314.526Z" fill="#AAE0E5"/>
<path d="M211.582 313.652H232.686V276.429H211.582V313.652ZM234.427 315.397H209.831V274.683H234.427V315.397Z" fill="#F2F2F2"/>
<path d="M367.172 229.677H95.8193V220.079H367.172V229.677Z" fill="#DDBB66"/>
<path d="M369.807 221.304H89.8057V211.398H369.807V221.304Z" fill="#F2F2F2"/>
<path d="M367.172 325.977H353.4V219.202H367.172V325.977Z" fill="#F2F2F2"/>
<path d="M109.589 330.055H95.8154V219.213H109.589V330.055Z" fill="#F2F2F2"/>
<path d="M369.807 211.841H89.8057V206.405H369.807V211.841Z" fill="#253746"/>
<path d="M313.958 182.817H290.015V139.819H313.958V182.817Z" fill="#AAE0E5"/>
<path d="M290.881 181.946H313.085V140.696H290.881V181.946ZM314.824 183.692H289.131V138.949H314.824V183.692Z" fill="#F2F2F2"/>
<path d="M337.672 182.817H313.725V139.82H337.672V182.817Z" fill="#AAE0E5"/>
<path d="M314.601 181.946H336.798V140.694H314.601V181.946ZM338.547 183.69H312.852V138.948H338.547V183.69Z" fill="#F2F2F2"/>
<path d="M238.741 199.09H146.044V190.166H238.741V199.09Z" fill="#F2F2F2"/>
<path d="M232.264 190.952H205.971V143.699H232.264V190.952Z" fill="#AAE0E5"/>
<path d="M206.742 190.168H231.472V144.49H206.742V190.168ZM233.047 191.743H205.167V142.915H233.047V191.743Z" fill="#F2F2F2"/>
<path d="M205.277 190.952H178.961V143.7H205.277V190.952Z" fill="#AAE0E5"/>
<path d="M179.754 190.165H204.487V144.488H179.754V190.165ZM206.06 191.741H178.181V142.912H206.06V191.741Z" fill="#F2F2F2"/>
<path d="M178.825 190.954H152.524V143.701H178.825V190.954Z" fill="#AAE0E5"/>
<path d="M153.315 190.165H178.037V144.488H153.315V190.165ZM179.618 191.74H151.745V142.912H179.618V191.74Z" fill="#F2F2F2"/>
<path d="M232.264 143.966L152.53 143.789V133.021C152.53 133.021 174.232 123.872 190.981 124.033C209.48 124.211 232.264 133.108 232.264 133.108V143.966Z" fill="#AAE0E5"/>
<path d="M153.311 143.005L231.483 143.179V133.651C228.048 132.364 207.617 124.978 190.958 124.819C175.941 124.676 156.592 132.222 153.311 133.548V143.005ZM233.047 144.754L151.747 144.572V132.499L152.228 132.297C152.447 132.206 173.896 123.246 190.543 123.246C190.696 123.246 190.827 123.247 190.98 123.248C209.421 123.425 232.325 132.288 232.544 132.378L233.047 132.572V144.754Z" fill="#F2F2F2"/>
<path d="M282.595 341.629H90.7324V321.595H282.595V341.629Z" fill="#F2F2F2"/>
<path d="M369.983 342.493H350.244V320.735H369.983V342.493Z" fill="#F2F2F2"/>
<path d="M66.5595 343.178H61.3237V297.903H66.5595V343.178Z" fill="#A67C52"/>
<path d="M89.8508 281.554C89.8508 294.353 80.4756 304.965 68.2134 306.895C66.9057 307.102 65.5577 307.21 64.1897 307.21C50.0262 307.21 38.5386 295.722 38.5386 281.554C38.5386 274.901 57.1985 228.229 64.6926 228.229C65.8293 228.229 67.1872 229.291 68.6861 231.119C77.1258 241.401 89.8508 275.905 89.8508 281.554Z" fill="#83911D"/>
<path d="M89.8512 281.554C89.8512 294.353 80.476 304.965 68.2138 306.895C55.9616 304.965 46.5864 294.353 46.5864 281.554C46.5864 275.906 60.0456 241.402 68.6865 231.119C77.1262 241.402 89.8512 275.906 89.8512 281.554Z" fill="#99B02C"/>
<path d="M400.327 345.597H395.087V300.32H400.327V345.597Z" fill="#A67C52"/>
<path d="M423.608 283.972C423.608 296.772 414.237 307.384 401.973 309.314C400.666 309.522 399.322 309.628 397.954 309.628C383.789 309.628 372.299 298.141 372.299 283.972C372.299 277.32 390.956 230.647 398.462 230.647C399.588 230.647 400.944 231.71 402.457 233.537C410.884 243.82 423.608 278.324 423.608 283.972Z" fill="#83911D"/>
<path d="M423.608 283.971C423.608 296.772 414.238 307.384 401.973 309.313C389.721 307.384 380.351 296.772 380.351 283.971C380.351 278.324 393.801 243.82 402.458 233.537C410.884 243.82 423.608 278.324 423.608 283.971Z" fill="#99B02C"/>
<path d="M333.615 344.688H297.506V256.447H333.615V344.688Z" fill="#823914"/>
<path d="M299.247 342.942H331.873V258.194H299.247V342.942ZM335.366 346.434H295.766V254.703H335.366V346.434Z" fill="#F2F2F2"/>
<path d="M351.418 349.344H282.286V340.351H351.418V349.344Z" fill="#F2F2F2"/>
<path d="M351.418 359.115H282.286V348.409H351.418V359.115Z" fill="#E6E6E6"/>
<path d="M277.539 334.594H263.772V213.882H277.539V334.594Z" fill="#F2F2F2"/>
</g>
<defs>
<filter id="filter0_d" x="0" y="0" width="516.692" height="386" filterUnits="userSpaceOnUse" color-interpolation-filters="sRGB">
<feFlood flood-opacity="0" result="BackgroundImageFix"/>
<feColorMatrix in="SourceAlpha" type="matrix" values="0 0 0 0 0 0 0 0 0 0 0 0 0 0 0 0 0 0 127 0" result="hardAlpha"/>
<feOffset dx="15"/>
<feGaussianBlur stdDeviation="10"/>
<feComposite in2="hardAlpha" operator="out"/>
<feColorMatrix type="matrix" values="0 0 0 0 0 0 0 0 0 0 0 0 0 0 0 0 0 0 0.25 0"/>
<feBlend mode="normal" in2="BackgroundImageFix" result="effect1_dropShadow"/>
<feBlend mode="normal" in="SourceGraphic" in2="effect1_dropShadow" result="shape"/>
</filter>
</defs>
</svg>
